<svg fill="none" height="38" viewBox="0 0 202 38" width="202" xmlns="http://www.w3.org/2000/svg" xmlns:xlink="http://www.w3.org/1999/xlink"><clipPath id="a"><path d="m0 .5h202v37h-202z"/></clipPath><g clip-path="url(#a)" fill="#220596"><path d="m197.816 30.339v-22.443h4.188v22.443z"/><path d="m67.3479 23.0754c0 4.6842-3.4901 7.6489-7.3139 7.6489-1.6996 0-3.733-.6818-4.795-2.1939v1.8086h-4.1882v-22.443h4.2185v9.665c1.0623-1.4527 3.0954-2.105 4.795-2.105 3.8238-.0296 7.2836 2.9351 7.2836 7.6194zm-4.2791 0c0-2.1346-1.7299-3.8245-3.8239-3.8245-1.9422 0-3.8542 1.6009-3.8542 3.8245 0 2.2235 1.8208 3.8542 3.8542 3.8542 2.1243 0 3.8239-1.7494 3.8239-3.8542z"/><path d="m80.3959 15.813h4.1883v14.5567h-4.1883v-2.3717c-.6373 1.8974-3.0042 2.7274-4.4611 2.7274-3.8845 0-5.9179-2.5495-5.8876-6.9077v-8.0047h4.1882v7.7972c0 2.2828 1.3958 3.3205 2.8222 3.3205 1.4872 0 3.3383-.8004 3.3383-3.4391z"/><path d="m102.849 22.3947v7.9752h-4.1875v-7.7676c0-2.2829-1.3961-3.2909-2.8225-3.2909-1.4872 0-3.3383.7708-3.3383 3.4391v7.6194h-4.1882v-14.5569h4.1882v2.4608c.6373-1.9568 3.0045-2.8462 4.4612-2.8462 3.8841 0 5.9181 2.5793 5.8871 6.9671z"/><path d="m120.998 22.3947v7.9752h-4.188v-7.7676c0-2.2829-1.396-3.2909-2.823-3.2909-1.487 0-3.338.7708-3.338 3.4391v7.6194h-4.188v-14.5569h4.188v2.4608c.637-1.9568 3.005-2.8462 4.461-2.8462 3.885 0 5.918 2.5793 5.888 6.9671z"/><path d="m133.564 15.813h4.492l-9.195 21.6721h-4.462l3.551-8.5088-5.888-13.1633h4.583l3.52 8.4198z"/><path d="m138.785 25.7748h3.915c0 .83.728 1.7491 2.185 1.7491 1.214 0 2.125-.593 2.125-1.423 0-.6226-.516-.9487-1.639-1.2156l-1.973-.4743c-3.824-1.008-4.34-3.0833-4.34-4.5954 0-2.2531 2.398-4.3581 5.827-4.3581 2.701 0 5.888 1.2748 5.858 4.7436h-3.976c0-1.008-.82-1.512-1.821-1.512-.971 0-1.73.5336-1.73 1.2748 0 .6819.637 1.0376 1.457 1.2452l2.458.6226c3.581.9487 4.006 3.1129 4.006 4.2988 0 3.0537-3.187 4.6546-6.252 4.6546-3.035-.0592-6.07-1.8084-6.1-5.0103z"/><path d="m168.709 22.395v7.9751h-4.188v-7.738c0-2.2828-1.396-3.3204-2.823-3.3204-1.487 0-3.338.8004-3.338 3.439v7.6194h-4.188v-22.44298h4.188v10.22828c.637-1.8678 3.035-2.6682 4.461-2.6682 3.885-.0593 5.918 2.52 5.888 6.9078z"/><path d="m186.979 24.411h-11.199c.455 1.7195 1.852 2.698 3.824 2.698 1.518 0 3.005-.682 3.915-1.7198l2.428 2.4016c-1.396 1.8381-3.976 2.9351-6.586 2.9351-4.582 0-7.951-3.1426-7.951-7.6194 0-4.7139 3.672-7.649 7.921-7.649 4.279 0 7.739 2.9647 7.739 7.4118 0 .3854-.03.8894-.091 1.5417zm-4.128-2.6386c-.121-1.7196-1.547-2.8165-3.429-2.8165-1.73 0-3.187.8301-3.642 2.8165z"/><path d="m189.926 30.339v-22.443h4.188v22.443z"/><path d="m34.7245 3.74932c1.0014.39136 1.4421 1.52629 1.0416 2.46558-.3207.74357-1.0416 1.17408-1.8029 1.17408-.2403 0-.5209-.03915-.7612-.15656-4.8473-1.99593-10.0154-2.97435-15.2634-2.97435-1.0817 0-1.923-.86099-1.923-1.87853s.8814-1.878528 1.923-1.878528c5.8089-.039136 11.4577 1.056668 16.7859 3.248308z"/><path d="m34.7203 11.3421c1.0016.3914 1.4422 1.5264 1.0415 2.4656-.3204.7436-1.0415 1.1741-1.8026 1.1741-.2404 0-.5209-.0391-.7613-.1566-4.8475-1.9959-9.9753-2.9743-15.2634-2.9743-5.3282 0-10.45611.9784-15.26351 2.9352-1.00154.3914-2.123265-.0391-2.523882-1.0175-.400616-.9784.040058-2.0742 1.041602-2.4656 5.28814-2.1525 10.89679-3.24831 16.74579-3.24831 5.8089 0 11.4575 1.09581 16.7858 3.28741z"/><path d="m27.2288 16.6251c1.0416.2349 1.7226 1.2133 1.4822 2.2308s-1.2418 1.6828-2.2833 1.448c-2.8445-.587-5.6889-.9001-8.4532-.9001-5.3281 0-10.45603.9784-15.26346 2.9744-.24036.0782-.48073.1565-.76116.1565-.76117 0-1.482278-.4305-1.802772-1.1741-.400616-.9784.040058-2.0742 1.041602-2.4655 5.28814-2.1526 10.89679-3.2484 16.74579-3.2484 3.0847 0 6.2095.3131 9.2943.9784z"/><path d="m17.9745 23.2c1.0817 0 1.923.8609 1.923 1.8785s-.8813 1.8785-1.923 1.8785c-5.3282 0-10.45606.9785-15.26346 2.9743-.24036.0785-.48073.1566-.76116.1566-.76117 0-1.482278-.4304-1.802772-1.1741-.400616-.9783.040058-2.0742 1.041602-2.4657 5.32819-2.1523 10.93689-3.2481 16.78579-3.2481z"/></g></svg>