<svg fill="none" height="58" viewBox="0 0 152 58" width="152" xmlns="http://www.w3.org/2000/svg"><g fill="#8c929d"><path d="m113.804 18.616h-2.763l.009 20.7689h11.179v-2.5683h-8.416z"/><path clip-rule="evenodd" d="m124.145 25.2787c1.598-1.3297 3.644-2.1285 5.876-2.1285 4.113 0 5.558 2.2513 5.558 5.6125v10.6222h-1.947l-.503-2.0293c-.659 1.4902-2.564 2.4098-4.553 2.4098-2.951 0-4.898-1.6171-4.898-4.8196 0-3.5831 2.449-5.2954 7.285-5.2954.565 0 1.476.0636 1.915.1587v-1.0147c0-1.9659-1.005-3.1393-3.265-3.1393-1.979 0-3.36.6661-4.491 1.3319zm5.309 11.9184c1.57 0 2.732-.7294 3.422-1.4587v-3.8368c-.471-.095-1.381-.1584-1.946-.1584-3.015 0-4.428.983-4.428 3.0439 0 1.3636.848 2.41 2.952 2.41z" fill-rule="evenodd"/><path clip-rule="evenodd" d="m141.856 24.8469s1.329-1.6966 3.799-1.6966c4.051 0 6.343 3.0124 6.343 7.5467 0 5.7393-2.48 9.0685-7.63 9.0685-2.01 0-3.863-.317-5.213-.8877l-.009-20.2617h1.455 1.246l.009 3.5514zm-.003 12.0006c.691.3171 1.601.4439 2.638.4439 2.983 0 4.647-2.0611 4.647-6.4367 0-3.0759-1.036-4.9783-3.705-4.9783-1.476 0-2.638.5707-3.58 1.3636v.9986z" fill-rule="evenodd"/><path d="m83.776 20.8676c2.4493 0 4.0194.8243 5.0557 1.6488l1.1875-2.0771c-1.6186-1.4333-3.7956-2.2036-6.1176-2.2036-5.872 0-9.9856 3.6149-9.9856 10.9077 0 7.6419 4.4378 10.6224 9.5146 10.6224 2.5436 0 4.7103-.6024 6.1233-1.2049l-.0579-8.1649v-.9632-1.6052h-7.5363v2.5684h4.8043l.0579 6.1989c-.628.3171-1.7271.5707-3.2028.5707-4.0822 0-6.8142-2.593-6.8142-8.0539 0-5.5488 2.8262-8.2441 6.9711-8.2441z"/><path d="m103.203 18.616h-2.701l.009 3.4879v1.427.8316 1.4514 8.3075.0317c0 3.3611 1.444 5.6124 5.558 5.6124.568 0 1.124-.0521 1.664-.1512v-2.4488c-.391.0605-.808.0949-1.256.0949-2.261 0-3.266-1.1732-3.266-3.139v-8.3075h4.522v-2.283h-4.522z"/><path d="m93.6465 39.3842h2.7006v-15.8543h-2.7006z"/><path d="m93.6465 21.3429h2.7006v-2.727h-2.7006z"/></g><path d="m62.228 33.1605-3.4884-10.8409-6.9136-21.485951c-.3556-1.105374-1.9044-1.105374-2.2602 0l-6.9137 21.485951h-22.9577l-6.9139-21.485951c-.3556-1.105374-1.9044-1.105374-2.2602 0l-6.91356 21.485951-3.488244 10.8409c-.31831.9888.03038 2.072.863286 2.6831l30.191318 22.1496 30.1916-22.1496c.8329-.6111 1.1814-1.6943.8633-2.6831z" fill="#fc6d26"/><path d="m31.1723 57.9945 11.4789-35.6736h-22.9578z" fill="#e24329"/><path d="m31.1738 57.9953-11.4789-35.6735h-16.08748z" fill="#fc6d26"/><path d="m3.60684 22.3198-3.488417 10.8409c-.318142.9888.03038 2.072.863454 2.6829l30.191323 22.1496z" fill="#fca326"/><path d="m3.60742 22.3215h16.08748l-6.9137-21.485974c-.3558-1.105546-1.9046-1.105546-2.2602 0z" fill="#e24329"/><path d="m31.1777 57.9945 11.4789-35.6735h16.0875z" fill="#fc6d26"/><path d="m58.7441 22.321 3.4885 10.8409c.3181.9888-.0304 2.0721-.8635 2.683l-30.1914 22.1496z" fill="#fca326"/><path d="m58.7379 22.3207h-16.0875l6.9137-21.485907c.3558-1.105545 1.9046-1.105545 2.2602 0z" fill="#e24329"/></svg>