<svg fill="none" height="46" viewBox="0 0 200 46" width="200" xmlns="http://www.w3.org/2000/svg" xmlns:xlink="http://www.w3.org/1999/xlink"><clipPath id="a"><path d="m0 0h200v45.6774h-200z"/></clipPath><g clip-path="url(#a)"><path d="m186.621 0v3.19742l7.913 4.63492-5.172 3.02276v-3.90944l-2.741-1.61215v10.33119l13.381-7.83236z" fill="#0985f9"/><g fill="#00051c"><path d="m22.9999 18.8083h4.0304l-11.8896 26.8691h-3.3183l-11.8224-26.8691h4.03036l9.40414 21.9655z"/><path d="m33.9219 45.6774v-26.8691h3.9229v26.8691z"/><path d="m47.0195 18.8083h9.4042c4.3438 0 7.7114 1.1733 10.1028 3.5199 2.3913 2.3466 3.5915 5.6515 3.6004 9.9147 0 4.2811-1.1956 7.5995-3.587 9.955-2.3913 2.3555-5.7634 3.5154-10.1162 3.4795h-9.4042zm9.1893 23.6448c6.6098 0 9.9146-3.3989 9.9146-10.1968s-3.3048-10.2057-9.9146-10.2237h-5.2664v20.3668z"/><path d="m135.609 44.0115c-1.873-1.1276-3.373-2.7816-4.313-4.7558-1.058-2.2691-1.577-4.7518-1.518-7.2547-.06-2.5231.454-5.027 1.505-7.3218.924-1.9848 2.427-3.6429 4.312-4.7558 2.039-1.0856 4.314-1.6534 6.624-1.6534 2.309 0 4.584.5678 6.623 1.6534 1.885 1.1135 3.388 2.7715 4.312 4.7558 1.048 2.2816 1.562 4.7716 1.505 7.2815.055 2.5054-.459 4.9906-1.505 7.2681-.928 1.9851-2.43 3.6463-4.312 4.7693-2.022 1.1573-4.322 1.7382-6.65 1.6793-2.306.0596-4.583-.5168-6.583-1.6659zm12.843-4.2587c1.629-2.2588 2.422-5.0132 2.244-7.7921.179-2.7728-.61-5.5217-2.23-7.7786-.769-.9044-1.736-1.6178-2.827-2.0841-1.092-.4663-2.276-.6727-3.461-.6028-1.172-.0645-2.343.1447-3.42.6111-1.077.4663-2.031 1.177-2.786 2.0758-1.617 2.2581-2.401 5.0073-2.217 7.7786-.179 2.775.604 5.5269 2.217 7.7921.753.9004 1.707 1.6122 2.785 2.0787 1.077.4665 2.249.6748 3.421.6082 1.183.0688 2.365-.1381 3.454-.6044s2.054-1.1792 2.82-2.0825z"/><path d="m110.165 42.4666h15.101v3.2108h-19.575v-2.9018l14.684-20.8236h-14.684v-3.1437h19.252v2.8616z"/><path d="m86.7734 23.712-9.4579 21.9654h-4.0303l11.8223-26.8691h3.3184l11.8631 26.8691h-4.0308z"/><path d="m164.976 44.0115c-1.873-1.1276-3.373-2.7816-4.312-4.7558-1.058-2.2691-1.578-4.7518-1.519-7.2547-.06-2.5231.454-5.027 1.505-7.3218.924-1.9848 2.427-3.6429 4.313-4.7558 2.038-1.0856 4.313-1.6534 6.623-1.6534s4.584.5678 6.623 1.6534c1.885 1.1135 3.388 2.7715 4.312 4.7558 1.057 2.2795 1.581 4.7696 1.532 7.2815.057 2.5099-.457 4.9999-1.505 7.2815-.928 1.9851-2.43 3.6463-4.312 4.7693-2.027 1.1551-4.332 1.7313-6.664 1.6659-2.31.0621-4.592-.5144-6.596-1.6659zm12.843-4.2587c1.629-2.2588 2.422-5.0132 2.244-7.7921.183-2.7712-.601-5.52-2.217-7.7786-.768-.9044-1.736-1.6178-2.827-2.0841s-2.276-.6727-3.46-.6028c-1.172-.0645-2.343.1447-3.421.6111-1.077.4663-2.031 1.177-2.786 2.0758-1.617 2.2581-2.4 5.0073-2.217 7.7786-.179 2.775.604 5.5269 2.217 7.7921.754.9004 1.708 1.6122 2.785 2.0787 1.078.4665 2.25.6748 3.422.6082 1.182.0688 2.365-.1381 3.453-.6044 1.089-.4663 2.055-1.1792 2.821-2.0825z"/></g></g></svg>