<svg fill="none" height="42" viewBox="0 0 208 42" width="208" xmlns="http://www.w3.org/2000/svg" xmlns:xlink="http://www.w3.org/1999/xlink"><clipPath id="a"><path d="m0 .5h208v41h-208z"/></clipPath><g clip-path="url(#a)"><g fill="#000824"><path d="m62.8281 41.498v-31.82455h4.7926v2.61205c.5846-.887 1.4043-1.5964 2.3688-2.05 1.1751-.62723 2.491-.94814 3.8248-.93276 1.4132-.09493 2.8297.13284 4.1406.66582 1.3111.53304 2.4819 1.35714 3.423 2.40914 1.8621 2.4784 2.7783 5.5333 2.5854 8.6203.1719 3.0649-.7545 6.0912-2.6146 8.5416-.9432 1.0691-2.1212 1.9081-3.443 2.4522-1.3216.5442-2.7516.779-4.1791.686-1.2521.0149-2.4896-.2673-3.6099-.8234-.9893-.4662-1.8457-1.1709-2.4908-2.05v11.6936zm6.1455-26.0094c-1.1564 1.5993-1.729 3.5429-1.6228 5.5094-.1064 1.9666.4661 3.9102 1.6228 5.5093.4968.6338 1.1321 1.147 1.858 1.5008.726.3536 1.5233.5385 2.3317.5407.8085.002 1.6068-.1785 2.3346-.5284s1.3659-.8596 1.8662-1.4909c1.1589-1.6066 1.7336-3.5574 1.6296-5.5315.1062-1.966-.465-3.9093-1.6193-5.5094-.4984-.6344-1.1358-1.1475-1.8636-1.5005-.7278-.3529-1.527-.5363-2.3368-.5363-.8099 0-1.609.1834-2.3368.5363-.7279.353-1.3653.8661-1.8636 1.5005z"/><path d="m86.8172 25.8072c-.0387-1.0602.1894-2.1132.6637-3.0636.4742-.9503 1.1797-1.7681 2.0523-2.3792 2.1106-1.4039 4.6195-2.0963 7.1562-1.9748h3.9316v-.9874c.045-.5604-.045-1.1234-.262-1.6426s-.5549-.9797-.9862-1.3436c-.923-.6725-2.0487-1.0129-3.1922-.9652-.9441-.0458-1.8761.2261-2.6456.7716-.7696.5456-1.3315 1.333-1.5952 2.2351l-4.3061-.9003c.4299-1.8339 1.507-3.454 3.0358-4.5664 1.6163-1.15032 3.5669-1.74365 5.5541-1.68955 6.1254 0 9.1884 2.98505 9.1884 8.95515v14.0681h-3.976l-.516-2.9623c-.795 1.0925-1.8544 1.9685-3.0797 2.5478-1.2253.5792-2.5775.8426-3.9322.7664h-.0654c-1.8355.0641-3.6284-.5583-5.0246-1.7442-.6917-.6557-1.2294-1.455-1.5748-2.3408-.3452-.8859-.4896-1.8366-.4227-2.7842zm4.973 0c-.0257.3745.0308.7501.1661 1.1005.1353.3505.3459.6674.6171.9286.2711.2612.5965.4606.9532.5839.3567.1234.7363.168 1.112.1306 1.5365.0244 3.0289-.5103 4.1961-1.5034.6031-.5265 1.0775-1.1826 1.3873-1.9184.31-.7358.448-1.5321.402-2.3285v-.5125h-4.1254c-1.2186-.0656-2.4257.2655-3.438.943-.4071.2908-.7359.6765-.9573 1.1234-.2216.4469-.329.9411-.3131 1.4391"/><path d="m110.746 32.325v-22.65086h4.799v3.77546c.702-1.2664 1.732-2.3233 2.983-3.0614 1.129-.69356 2.427-1.0691 3.754-1.08648.992-.00738 1.974.17895 2.893.54838l-.818 4.2794c-.799-.4754-1.718-.7126-2.649-.6834-.896.0453-1.765.3196-2.523.7963-.759.4767-1.38 1.1398-1.805 1.9251-1.361 2.3505-1.998 5.0458-1.835 7.7525v8.405z"/><path d="m126.391 25.8072c-.038-1.0602.19-2.1132.664-3.0636.474-.9503 1.18-1.7681 2.052-2.3792 2.111-1.4039 4.62-2.0963 7.157-1.9748h3.931v-.9874c.045-.5604-.045-1.1234-.262-1.6425-.217-.5192-.555-.9797-.986-1.3437-.923-.6723-2.049-1.0127-3.192-.9652-.944-.0458-1.876.2261-2.646.7716-.769.5456-1.331 1.333-1.595 2.2351l-4.306-.9003c.43-1.8339 1.507-3.454 3.036-4.5664 1.616-1.15032 3.567-1.74365 5.554-1.68955 6.125 0 9.188 2.98505 9.188 8.95515v14.0681h-3.976l-.516-2.9623c-.795 1.0925-1.854 1.9685-3.079 2.5478-1.226.5792-2.578.8426-3.933.7664h-.065c-1.835.0639-3.628-.5585-5.025-1.7442-.691-.6557-1.229-1.455-1.574-2.3408-.346-.8859-.49-1.8366-.423-2.7842zm4.973 0c-.025.3745.031.7501.167 1.1005.135.3505.345.6674.617.9286.271.2612.596.4606.953.5839.357.1234.736.168 1.112.1306 1.536.0244 3.029-.5103 4.196-1.5034.603-.5265 1.078-1.1826 1.388-1.9184s.447-1.5321.401-2.3285v-.5125h-4.125c-1.219-.0656-2.426.2655-3.438.943-.407.2908-.736.6765-.958 1.1234-.221.4469-.329.9411-.313 1.4391"/><path d="m150.312 32.3263v-31.8263h4.793v11.6765c.699-.867 1.599-1.5523 2.623-1.9971 1.079-.55406 2.271-.85449 3.485-.87807 1.429-.09146 2.859.14581 4.181.69335 1.322.54752 2.499 1.39062 3.439 2.46362 1.856 2.4525 2.782 5.4773 2.615 8.5417.191 3.0827-.728 6.1322-2.593 8.6032-.942 1.0508-2.113 1.874-3.423 2.407-1.311.5328-2.727.7614-4.14.668-1.329.0126-2.64-.3045-3.815-.9225-.97-.4459-1.795-1.1532-2.381-2.0415v2.6121zm6.146-16.834c-1.156 1.5989-1.728 3.5417-1.623 5.5077-.106 1.9665.466 3.9102 1.623 5.5094.497.6338 1.132 1.1469 1.858 1.5006.726.3538 1.523.5386 2.332.5408.808.0021 1.606-.1785 2.334-.5284.728-.3498 1.366-.8596 1.866-1.4908 1.159-1.6067 1.734-3.5575 1.63-5.5316.106-1.9663-.466-3.9095-1.621-5.5094-.498-.6344-1.136-1.1475-1.864-1.5005-.727-.3529-1.527-.5363-2.336-.5363-.81 0-1.61.1834-2.337.5363-.728.353-1.365.8661-1.864 1.5005"/><path d="m174.63 20.9563c-.088-3.0442 1.004-6.0058 3.048-8.2752 1.071-1.0712 2.343-1.9214 3.746-2.5016 1.402-.58016 2.906-.87884 4.426-.87884s3.024.29868 4.427.87884c1.4.5802 2.674 1.4304 3.745 2.5016 2.044 2.2859 3.134 5.2609 3.048 8.3179.088 3.0544-1.002 6.0264-3.048 8.3077-1.031 1.1215-2.298 2.0045-3.709 2.5866-1.412.5822-2.936.8492-4.463.7822-.003-.0007-.007-.0005-.01.0003-.002.0009-.005.0026-.007.0048s-.004.005-.005.0079c0 .0031-.002.0061 0 .0092-1.525.0624-3.045-.2079-4.453-.7916-1.407-.5838-2.669-1.467-3.697-2.5875-2.047-2.3055-3.137-5.2975-3.048-8.3708zm6.625 5.3471c.514.7247 1.203 1.3096 2.005 1.701.799.3912 1.686.5764 2.578.5386.892.0373 1.781-.1462 2.584-.5338.804-.3876 1.499-.9673 2.021-1.687 1.08-1.5677 1.657-3.4228 1.657-5.3223s-.577-3.7546-1.657-5.3223c-.548-.6946-1.246-1.2561-2.045-1.6419-.798-.3858-1.675-.5858-2.563-.5849-.887.001-1.764.203-2.562.5906-.796.3876-1.495.9506-2.04 1.6464-1.116 1.5279-1.692 3.38-1.635 5.2668-.05 1.9171.531 3.7978 1.657 5.3556"/><path d="m206.39.5h-4.792v31.8262h4.792z"/></g><path d="m22.8444 34.3017c-1.5161 0-3.0134-.0717-4.4694-.2084 5.5558 6.0509 11.8491 8.8936 15.8991 6.5685 2.5785-1.4811 3.7818-4.797 3.6804-9.0285-4.8206 1.8281-9.9457 2.7335-15.1049 2.6684" fill="#fa6158"/><path d="m22.8474 7.69181c1.5179 0 3.0134.07175 4.4694.20841-5.5489-6.04921-11.8422-8.891879-15.8922-6.56855-2.57853 1.48114-3.78183 4.79701-3.68041 9.02853 4.82061-1.82806 9.94571-2.73345 15.10491-2.66839" fill="#fa6158"/><path d="m39.6674 13.3157c-.8176 5.0624-2.5912 9.9255-5.2275 14.3328-.7615 1.312-1.5729 2.5625-2.4204 3.7481 8.0501-1.7562 13.6747-5.7503 13.6747-10.4003 0-2.9623-2.2862-5.6597-6.0268-7.6875" fill="#55bdcc"/><path d="m11.2543 14.3459c.7616-1.312 1.5729-2.5625 2.4204-3.7481-8.05182 1.7561-13.6747 5.7519-13.6747 10.4003 0 2.9622 2.28456 5.6597 6.02684 7.6875.81732-5.063 2.59101-9.9268 5.22746-14.3346" fill="#55bdcc"/><path d="m34.4434 14.3431c.758 1.3051 1.4439 2.6291 2.0628 3.9565 2.4891-7.8106 1.8187-14.64388-2.2313-16.96721-2.5785-1.482829-6.0784-.862705-9.7124 1.34787 4.0051 3.23341 7.3577 7.19131 9.8809 11.66454" fill="#a06bd6"/><path d="m11.256 27.6494c-.7581-1.3052-1.44394-2.6292-2.06278-3.9565-2.496 7.8071-1.82559 14.6438 2.22608 16.9689 2.5785 1.4828 6.0784.8627 9.7124-1.3479-4.005-3.2336-7.3577-7.1914-9.8808-11.6645" fill="#a06bd6"/></g></svg>