<svg fill="none" height="32" viewBox="0 0 210 32" width="210" xmlns="http://www.w3.org/2000/svg" xmlns:xlink="http://www.w3.org/1999/xlink"><clipPath id="a"><path d="m0 .5h210v31h-210z"/></clipPath><g clip-path="url(#a)" clip-rule="evenodd" fill-rule="evenodd"><g fill="#0a2562"><path d="m41.9746 7.52617c0-.24798.2422-.49596.4842-.49596h1.6144c.2421 0 .4842.24798.4842.49596v16.61473c0 .248-.2421.496-.4842.496h-1.6144c-.242 0-.4842-.248-.4842-.496z"/><path d="m51.7383 7.19547c0-.24798.2421-.4133.4843-.4133h.6457l10.6543 12.56433v-11.82039c0-.24798.1615-.49596.4843-.49596h1.5336c.2421 0 .4842.24798.4842.49596v16.86269c0 .248-.2421.4132-.4842.4132h-.6457l-10.6543-12.8949v12.2337c0 .248-.1615.496-.4843.496h-1.5336c-.2422 0-.4843-.248-.4843-.496z"/><path d="m75.5486 9.34476h-3.955c-.2422 0-.4842-.24798-.4842-.49596v-1.32257c0-.24798.1614-.49596.4842-.49596h10.5736c.2422 0 .4843.24798.4843.49596v1.40524c0 .24798-.1615.49596-.4843.49596h-3.955v14.71347c0 .248-.2422.496-.4843.496h-1.6143c-.2421 0-.4843-.248-.4843-.496v-14.79614z"/><path d="m87.6523 7.52623c0-.24798.1614-.49596.4844-.49596h6.6994c2.9059 0 5.3269 2.39716 5.3269 5.37293 0 2.3145-1.5337 4.2157-3.6318 5.125l3.3893 6.3647c.1615.3307 0 .744-.403.744h-1.9373c-.1617 0-.3225-.1653-.4039-.248l-3.2282-6.6128h-3.7129v6.3648c0 .248-.2421.496-.4843.496h-1.6142c-.2422 0-.4844-.248-.4844-.496zm6.8608 8.01797c1.6142 0 2.9867-1.4051 2.9867-3.141 0-1.6532-1.3725-2.97577-2.9867-2.97577h-4.3585v6.11677z"/><path d="m106.383 7.52617c0-.24798.242-.49596.484-.49596h1.615c.242 0 .484.24798.484.49596v16.61473c0 .248-.242.496-.484.496h-1.615c-.242 0-.484-.248-.484-.496z"/><path d="m123.737 6.78223c2.502 0 4.278.8266 5.893 2.31449.242.16531.242.49596 0 .74394l-1.05 1.15724c-.161.248-.403.248-.646 0-1.13-.9919-2.744-1.6532-4.278-1.6532-3.471 0-6.134 2.9757-6.134 6.5302 0 3.5543 2.663 6.5301 6.215 6.5301 1.776 0 3.067-.744 4.197-1.6532.243-.1653.403-.1653.565 0l1.131 1.1572c.16.1654.16.496 0 .6613-1.695 1.6532-3.795 2.3972-5.974 2.3972-4.924 0-8.879-3.9677-8.879-9.01.082-5.125 4.037-9.17527 8.96-9.17527z"/><path d="m133.343 23.8928 7.507-16.86259c.08-.16532.322-.24798.403-.24798h.242c.162 0 .324.16532.404.24798l7.506 16.86259c.162.3308-.08.6614-.403.6614h-1.533c-.324 0-.485-.1654-.566-.4134l-1.533-3.4717h-7.991c-.484 1.1573-.968 2.3145-1.533 3.4717-.082.1654-.242.4134-.566.4134h-1.533c-.404 0-.565-.3306-.404-.6614zm11.058-5.2902-2.986-6.8608h-.161l-2.987 6.8608z"/><path d="m155.781 9.3447h-4.035c-.242 0-.484-.24798-.484-.49596v-1.32257c0-.24798.161-.49596.484-.49596h10.574c.242 0 .484.24798.484.49596v1.40523c0 .24798-.162.49596-.484.49596h-3.955v14.71354c0 .248-.242.496-.484.496h-1.615c-.242 0-.485-.248-.485-.496z"/><path d="m167.887 7.52623c0-.24798.161-.49596.484-.49596h9.767c.242 0 .484.24798.484.49596v1.40524c0 .24798-.161.49596-.484.49596h-7.748v5.12487h6.537c.242 0 .484.248.484.496v1.4052c0 .248-.242.496-.484.496h-6.537v5.3729h7.748c.242 0 .484.248.484.496v1.4052c0 .248-.161.496-.484.496h-9.767c-.242 0-.484-.248-.484-.496z"/><path d="m184.759 7.52623c0-.24798.161-.49596.483-.49596h1.615c.242 0 .484.24798.484.49596v14.79617h6.619c.242 0 .484.248.484.496v1.4052c0 .248-.161.496-.484.496h-8.718c-.242 0-.484-.248-.484-.496v-16.69737z"/><path d="m201.543 16.1229-5.731-8.34868c-.161-.33064 0-.74395.404-.74395h1.775c.162 0 .324.16533.404.24798l4.439 6.36485 4.44-6.36485c.08-.08265.242-.24798.403-.24798h1.856c.404 0 .565.41331.404.74395l-5.811 8.34868v8.018c0 .248-.243.496-.485.496h-1.614c-.242 0-.484-.248-.484-.496z"/></g><path d="m25.992 25.1326c.1613.1654.3228.0827.4035 0 1.9372-2.5625 3.1479-5.7862 3.1479-9.3406 0-3.637-1.2107-6.94343-3.3093-9.5059-.0808-.16532-.3228-.16532-.4036 0l-1.1299 1.15725c-.0808.08265-.0808.24798 0 .4133 1.372 1.81852 2.3406 3.96765 2.5828 6.36485 0 .0826-.0807.1653-.1614.1653h-2.4214c-.0808 0-.1615-.0827-.1615-.1653-.8072-5.12495-5.3272-9.00998-10.6543-8.59668-4.84288.49596-8.71717 4.46368-9.04003 9.42328-.16142 2.3972.48429 4.629 1.69501 6.5301.08071.1653.32286.1653.48428 0l1.13-1.1572c.08072-.0827.08072-.248 0-.3307-.88785-1.4051-1.37214-3.2237-1.13-5.0422.40357-3.8023 3.55144-6.86081 7.26424-7.02614 4.4394-.24798 8.1522 3.38904 8.1522 7.93544 0 3.8849-2.6636 7.026-6.215 7.77-.0807 0-.2421-.0826-.2421-.1653v-2.5625c0-.0826.0807-.1654.0807-.1654 2.0985-.5785 3.5514-2.5624 3.5514-4.8768 0-.8267-.1614-1.6533-.565-2.3146-.0807-.0826-.1615-.0826-.2422 0l-1.372 1.4053c-.0808.0826-.1615.248-.0808.4133.0808.496.0808.9919-.0807 1.4879-.3229.9092-1.0493 1.5705-1.9371 1.8185-2.0986.4959-3.955-1.4053-3.39-3.4717.2421-.9093.9685-1.7359 1.8564-1.9839.4842-.1653 1.0492-.1653 1.5336 0 .1613 0 .3228 0 .4035-.0826l1.3722-1.4053c.0807-.0826.0807-.1653 0-.2479-.8879-.496-2.0179-.744-3.1479-.5786-2.0986.3306-3.7935 2.0664-4.1164 4.2156-.4036 2.8104 1.3721 5.2076 3.8742 5.7862.0808 0 .1615.0826.1615.1654v2.5624c0 .0827-.0807.1653-.1615.1653-1.2107-.1653-2.2599-.5786-3.2285-1.2399-.0808-.0826-.2422-.0826-.4036 0l-1.21071.9093c-.16142.1653-.08072.3306 0 .496 1.61431 1.2399 3.63211 1.9011 5.81151 1.9011 5.1657 0 9.3628-4.0503 9.8471-9.1753 0-.0826.0807-.1653.1615-.1653h2.3406c.0808 0 .1615.0827.1615.1653-.1615 2.4798-1.1301 4.877-2.5021 6.7782-.0808.0827-.0808.248 0 .4133z" fill="#ff3c6a"/><path d="m14.7681 2.73183c2.825 0 5.4886.99192 7.5872 2.64512.0807.08266.2422.08266.3228 0l1.1301-1.15724c.1614-.16533.0807-.33064 0-.41331-2.5021-1.98383-5.6501-3.3064-9.0401-3.3064-7.50639 0-13.7214 5.86887-14.689975 13.0603 0 .1654.080715.3306.322858.3306h1.614287c.16143 0 .24215-.0826.32285-.248.80715-6.11679 6.05358-10.91107 12.42998-10.91107z" fill="#ff3c6a"/><path d="m22.9229 25.9589c-.0808-.0826-.2421-.0826-.4036 0-2.1793 1.7359-4.8429 2.6452-7.8293 2.6452-6.53785 0-11.865-5.0424-12.59143-11.6552 0-.1652-.16142-.248-.32285-.248h-1.614291s-.161429.1654-.161429.3307c.72643 7.77 7.02215 13.8043 14.7708 13.8043 3.5513 0 6.7799-1.2399 9.2821-3.3065.1614-.0826.1614-.3306 0-.4132z" fill="#ff3c6a"/></g></svg>