<svg width="144" height="36" viewBox="0 0 144 36" fill="none" xmlns="http://www.w3.org/2000/svg">
<g clip-path="url(#clip0)">
<path d="M45.399 28.4862L47.1564 24.3786C49.0806 25.8036 51.5904 26.5578 54.1008 26.5578C55.9416 26.5578 57.1128 25.8456 57.1128 24.756C57.0708 21.738 46.0266 24.0852 45.9426 16.4976C45.9006 12.6414 49.3314 9.6654 54.1848 9.6654C57.0708 9.6654 59.958 10.3782 62.0076 12.0132L60.3654 16.2084C58.4796 14.9958 56.1504 14.1504 53.9334 14.1504C52.4274 14.1504 51.423 14.8626 51.423 15.7854C51.465 18.7614 62.5938 17.1264 62.7192 24.3786C62.7192 28.3188 59.3718 31.0854 54.6024 31.0854C51.0888 31.0854 47.8674 30.2472 45.3984 28.4862H45.399ZM115.376 22.8912C114.932 23.6794 114.287 24.3354 113.506 24.7919C112.725 25.2485 111.837 25.4891 110.933 25.4892C108.114 25.4892 105.829 23.1996 105.829 20.3754C105.829 17.5512 108.114 15.2616 110.933 15.2616C111.837 15.2617 112.725 15.5023 113.506 15.9589C114.287 16.4154 114.932 17.0714 115.376 17.8596L120.262 15.1476C118.432 11.877 114.941 9.6654 110.933 9.6654C105.029 9.6654 100.244 14.46 100.244 20.3754C100.244 26.2902 105.029 31.0854 110.933 31.0854C114.941 31.0854 118.432 28.8738 120.262 25.6032L115.376 22.8912ZM65.8896 30.666H71.9976V0.75H65.8902L65.8896 30.666ZM123.346 0.75V30.666H129.454V21.7032L136.692 30.666H144.499L135.295 20.0184L143.83 10.083H136.357L129.454 18.3432V0.75H123.346ZM90.8154 10.0842V12.516C89.8116 10.839 87.3432 9.6654 84.7494 9.6654C79.3944 9.6654 75.1692 14.4024 75.1692 20.3544C75.1692 26.3064 79.3944 31.0854 84.7494 31.0854C87.3432 31.0854 89.8116 29.9118 90.8154 28.2348V30.666H96.9234V10.0842H90.8154ZM90.8154 22.9326C89.937 24.3996 88.0962 25.4886 86.0466 25.4886C83.2272 25.4886 80.9424 23.1996 80.9424 20.3754C80.9424 17.5512 83.2272 15.2616 86.0466 15.2616C88.0962 15.2616 89.937 16.3932 90.8154 17.9016V22.9326Z" fill="#031B4E"/>
<path d="M13.1412 0.0888062C11.1618 0.0888062 9.5574 1.69681 9.5574 3.67981C9.55693 4.15091 9.64925 4.61749 9.8291 5.05292C10.0089 5.48834 10.2728 5.88408 10.6056 6.21754C10.9384 6.55099 11.3336 6.81563 11.7686 6.99635C12.2037 7.17707 12.6701 7.27033 13.1412 7.27081H16.7256V3.67981C16.7264 2.72831 16.3492 1.81547 15.677 1.14204C15.0048 0.468614 14.0927 0.0897605 13.1412 0.0888062ZM13.1412 9.66481H3.5838C1.6044 9.66481 0 11.2728 0 13.2564C0 15.2394 1.6044 16.8474 3.5838 16.8474H13.1418C15.1206 16.8474 16.7256 15.2394 16.7256 13.2564C16.7256 11.2728 15.1206 9.66481 13.1412 9.66481Z" fill="#04C2F3"/>
<path d="M35.8389 13.2565C35.8389 11.2729 34.2339 9.66486 32.2545 9.66486C30.2751 9.66486 28.6707 11.2729 28.6707 13.2565V16.8475H32.2545C33.206 16.8465 34.1181 16.4677 34.7903 15.7942C35.4625 15.1208 35.8397 14.208 35.8389 13.2565ZM26.2815 13.2565V3.67987C26.2823 2.72837 25.9051 1.81553 25.2329 1.1421C24.5607 0.468675 23.6486 0.0898215 22.6971 0.0888672C20.7177 0.0888672 19.1133 1.69687 19.1133 3.67987V13.2559C19.1133 15.2401 20.7177 16.8481 22.6971 16.8481C23.6486 16.8471 24.5607 16.4683 25.2329 15.7948C25.9051 15.1214 26.2823 14.2086 26.2815 13.2571" fill="#40D33D"/>
<path d="M22.6971 35.9998C23.6486 35.9989 24.5607 35.62 25.2329 34.9466C25.9051 34.2731 26.2823 33.3603 26.2815 32.4088C26.2823 31.4573 25.9051 30.5445 25.2329 29.871C24.5607 29.1976 23.6486 28.8188 22.6971 28.8178H19.1133V32.4088C19.1133 34.3918 20.7177 35.9998 22.6971 35.9998ZM22.6971 26.4238H32.2551C34.2339 26.4238 35.8389 24.8158 35.8389 22.8322C35.8397 21.8807 35.4625 20.9679 34.7903 20.2944C34.1181 19.621 33.206 19.2422 32.2545 19.2412H22.6971C20.7177 19.2412 19.1133 20.8492 19.1133 22.8322C19.1128 23.3033 19.2051 23.7699 19.385 24.2053C19.5648 24.6407 19.8287 25.0365 20.1615 25.3699C20.4942 25.7034 20.8895 25.968 21.3245 26.1488C21.7596 26.3295 22.226 26.4227 22.6971 26.4232" fill="#FFC700"/>
<path d="M1.8083e-06 22.8323C-0.000471188 23.3034 0.0918513 23.77 0.271698 24.2054C0.451545 24.6409 0.715394 25.0366 1.04818 25.3701C1.38097 25.7035 1.77617 25.9682 2.21124 26.1489C2.6463 26.3296 3.1127 26.4229 3.5838 26.4233C4.53529 26.4224 5.44745 26.0435 6.11963 25.3701C6.79182 24.6967 7.169 23.7838 7.1682 22.8323V19.2413H3.5838C1.6044 19.2413 1.8083e-06 20.8493 1.8083e-06 22.8323ZM9.5574 22.8323V32.4083C9.5574 34.3919 11.1618 35.9999 13.1412 35.9999C14.0927 35.999 15.0048 35.6201 15.677 34.9467C16.3492 34.2733 16.7264 33.3604 16.7256 32.4089V22.8323C16.7261 22.3612 16.6337 21.8945 16.4538 21.4591C16.274 21.0236 16.0101 20.6279 15.6772 20.2944C15.3444 19.9609 14.9491 19.6963 14.5139 19.5156C14.0788 19.3349 13.6124 19.2417 13.1412 19.2413C11.1618 19.2413 9.5574 20.8493 9.5574 22.8323Z" fill="#FF1F1F"/>
</g>
<defs>
<clipPath id="clip0">
<rect width="144" height="36" fill="white"/>
</clipPath>
</defs>
</svg>
