<svg fill="none" height="42" viewBox="0 0 174 42" width="174" xmlns="http://www.w3.org/2000/svg"><g clip-rule="evenodd" fill="#0a0b09" fill-rule="evenodd"><path d="m59.2359 32.3144v-9.4348h-8.2099v9.4348h-4.1881v-22.36164h4.1881v9.20004h8.2099v-9.20004h4.1878v22.36164z"/><path d="m74.6924 26.1355h-2.9915c-1.3296 0-1.695.3691-1.695 1.6117 0 1.1416.3654 1.645 1.6285 1.645 1.1966 0 2.2933-.4029 3.058-.8392zm4.0556 6.1782h-3.324l-.2989-1.1078c-1.4626.9739-3.191 1.4436-4.8199 1.4436-2.9585 0-4.2212-2.0476-4.2212-4.8685 0-3.3238 1.4295-4.5997 4.72-4.5997h3.8888v-1.7122c0-1.8132-.4988-2.4514-3.0915-2.4514-1.4621 0-3.0576.2015-4.4867.5035l-.4988-3.1224c1.5286-.4701 3.7558-.7721 5.5508-.7721 5.0858 0 6.5814 1.8131 6.5814 5.9095z"/><path d="m86.5901 32.6493c-1.7285 0-4.0887-.4029-5.5842-.9397l.5652-3.1228c1.3622.4029 3.1571.7053 4.8195.7053 1.795 0 2.0609-.4029 2.0609-1.6451 0-1.0073-.1999-1.5111-2.8256-2.1489-3.9553-.9739-4.4206-1.9812-4.4206-5.137 0-3.2905 1.4295-4.7345 6.0491-4.7345 1.496 0 3.4569.2014 4.853.5706l-.3985 3.2571c-1.23-.2352-3.191-.47-4.4545-.47-1.7614 0-2.0604.4029-2.0604 1.4102 0 1.3093.0995 1.4102 2.2933 1.9808 4.5206 1.2087 4.9529 1.8131 4.9529 5.1708 0 3.1562-.9642 5.1032-5.8501 5.1032z"/><path d="m104.508 32.3143v-11.4156c0-.8726-.365-1.3097-1.296-1.3097-.997 0-2.759.6048-4.2213 1.3768v11.3485h-4.0552v-23.03271l4.0552-.57102v8.49473c1.7953-.9402 4.1873-1.5779 5.9163-1.5779 2.693 0 3.656 1.914 3.656 4.835v11.8519z"/><path d="m111.557 32.3147h4.055v-16.3516h-4.055zm0-18.6687h4.054v-4.73413h-4.054z"/><path d="m118.439 16.0965c0-4.0963 2.36-6.48004 7.878-6.48004 2.06 0 4.188.26819 6.016.73864l-.465 3.6597c-1.795-.3358-3.889-.571-5.418-.571-2.892 0-3.823 1.0073-3.823 3.391v8.5956c0 2.3842.931 3.3915 3.823 3.3915 1.529 0 3.623-.2353 5.418-.571l.465 3.6596c-1.828.4705-3.956.7387-6.016.7387-5.518 0-7.878-2.3837-7.878-6.4801z"/><path d="m140.642 19.1195c-2.161 0-2.992.9735-2.992 2.8204v4.3983c0 1.8465.831 2.8205 2.992 2.8205 2.16 0 2.991-.974 2.991-2.8205v-4.3983c0-1.8469-.831-2.8204-2.991-2.8204zm-.004 13.53c-5.551 0-7.046-3.0887-7.046-6.4463v-4.1302c0-3.3572 1.495-6.4463 7.046-6.4463s7.047 3.0891 7.047 6.4463v4.1302c0 3.3576-1.496 6.4463-7.047 6.4463z"/><path d="m158.462 19.3872c-1.562.7049-2.825 1.4436-4.288 2.3837v10.5427h-4.055v-16.3512h3.424l.266 1.8127c.897-.604 2.825-1.7456 4.254-2.1485z"/><path d="m164.162 28.722c1.064.2352 2.427.4367 3.59.4367 1.462 0 2.028-.7049 2.028-2.1823v-5.7752c0-1.343-.499-2.0817-1.995-2.0817-1.33 0-2.758.6715-3.623 1.4769zm9.669-1.8476c0 3.6263-1.595 5.7752-5.352 5.7752-1.429 0-3.057-.2011-4.321-.4697v6.7483l-4.054.571v-23.5366h3.224l.398 1.3764c1.429-1.0411 3.091-1.7122 5.119-1.7122 3.257 0 4.986 1.9475 4.986 5.6743z"/><path d="m16.1478.499634-15.977878 9.311086v22.36458l6.003148 3.5009v-22.3642l9.97473-5.81744z"/><path d="m22.52.499634v17.811666h-6.3786v-6.6477l-6.0027 3.5008v22.8199l6.0027 3.5097v-17.761h6.3786v6.6038l6.0032-3.5012v-22.8347z"/><path d="m22.5254 41.5004 15.9779-9.3111v-22.3646l-6.0028-3.50085v22.36415l-9.9751 5.8179z"/></g></svg>