<svg viewBox="0 0 9 4" width="9" height="4" xmlns="http://www.w3.org/2000/svg"><path d="M 0 3.512 L 0 2.344 C 0 1.768 0.165 1.309 0.496 0.968 C 0.826 0.627 1.274 0.456 1.84 0.456 C 2.213 0.456 2.533 0.531 2.8 0.68 C 3.077 0.829 3.317 1.016 3.52 1.24 C 3.722 1.453 3.909 1.672 4.08 1.896 C 4.261 2.109 4.448 2.291 4.64 2.44 C 4.842 2.589 5.072 2.664 5.328 2.664 C 5.594 2.664 5.797 2.579 5.936 2.408 C 6.085 2.227 6.16 1.976 6.16 1.656 L 6.16 0.488 L 7.136 0.488 L 7.136 1.656 C 7.136 2.232 6.976 2.691 6.656 3.032 C 6.336 3.373 5.898 3.544 5.344 3.544 C 4.96 3.544 4.629 3.469 4.352 3.32 C 4.074 3.171 3.834 2.989 3.632 2.776 C 3.429 2.552 3.237 2.333 3.056 2.12 C 2.885 1.896 2.704 1.709 2.512 1.56 C 2.32 1.411 2.101 1.336 1.856 1.336 C 1.578 1.336 1.36 1.427 1.2 1.608 C 1.05 1.779 0.976 2.024 0.976 2.344 L 0.976 3.512 L 0 3.512 Z" fill="#76a5ff"></path></svg>