<?xml version="1.0" standalone="no"?>
<!DOCTYPE svg PUBLIC "-//W3C//DTD SVG 20010904//EN"
 "http://www.w3.org/TR/2001/REC-SVG-20010904/DTD/svg10.dtd">
<svg version="1.0" xmlns="http://www.w3.org/2000/svg"
 width="2758.000000pt" height="190.000000pt" viewBox="0 0 2758.000000 190.000000"
 preserveAspectRatio="xMidYMid meet">

<g transform="translate(0.000000,190.000000) scale(0.100000,-0.100000)"
fill="rgb(222 236 255)" stroke="none">
<path d="M0 950 l0 -950 13790 0 13790 0 -2 352 -3 352 -116 81 c-147 101
-191 136 -479 376 -129 108 -284 232 -343 277 -275 207 -546 339 -837 409
-129 30 -376 42 -513 24 -182 -24 -369 -86 -569 -186 -219 -110 -417 -246
-765 -527 -519 -418 -657 -515 -888 -628 -285 -140 -540 -194 -800 -170 -469
44 -835 253 -1665 949 -113 95 -250 202 -304 238 -199 132 -438 233 -676 285
-92 20 -134 22 -345 23 -262 0 -317 -7 -530 -66 -330 -93 -693 -292 -990 -543
-33 -28 -150 -130 -261 -227 -259 -228 -388 -330 -554 -441 -207 -138 -390
-219 -590 -263 -102 -22 -362 -31 -475 -16 -196 26 -427 105 -618 212 -197
110 -347 220 -753 550 -445 361 -611 477 -874 608 -166 83 -318 137 -470 170
-556 117 -1048 -16 -1603 -433 -106 -80 -192 -150 -543 -446 -423 -356 -692
-514 -1004 -591 -82 -20 -120 -23 -285 -24 -164 0 -204 3 -295 23 -296 67
-590 206 -923 440 -67 47 -250 181 -407 297 -471 350 -662 473 -909 584 -544
244 -1044 202 -1576 -134 -147 -93 -273 -186 -564 -418 -319 -255 -423 -333
-577 -433 -507 -331 -1060 -460 -1488 -349 -265 69 -516 227 -1001 631 -540
451 -760 605 -1049 735 -256 116 -545 179 -823 179 l-113 0 0 -950z"/>
</g>
</svg>
